/vscmnt/brussel_pixiu_data/_data_brussel/112/vsc11236/PredSimResults/SUBJ07mtu3D/worker3.mot
version=1
nRows=5
nColumns=50
inDegrees=yes
endheader
                time	         pelvis_tilt	         pelvis_list	     pelvis_rotation	           pelvis_tx	           pelvis_ty	           pelvis_tz	       hip_flexion_r	     hip_adduction_r	      hip_rotation_r	        knee_angle_r	       ankle_angle_r	         mtp_angle_r	       hip_flexion_l	     hip_adduction_l	      hip_rotation_l	        knee_angle_l	       ankle_angle_l	         mtp_angle_l	    lumbar_extension	      lumbar_bending	     lumbar_rotation	 ercspn_r/activation	 intobl_r/activation	 extobl_r/activation	    abd_r/activation	    add_r/activation	hamstrings_r/activation	bifemsh_r/activation	glut_max_r/activation	iliopsoas_r/activation	rect_fem_r/activation	  vasti_r/activation	gastroc_r/activation	 soleus_r/activation	tib_ant_r/activation	 ercspn_l/activation	 intobl_l/activation	 extobl_l/activation	    abd_l/activation	    add_l/activation	hamstrings_l/activation	bifemsh_l/activation	glut_max_l/activation	iliopsoas_l/activation	rect_fem_l/activation	  vasti_l/activation	gastroc_l/activation	 soleus_l/activation	tib_ant_l/activation	
          0.00000000	         -3.65638122	          0.36877209	          7.95583085	          0.00000000	          0.85105406	         -0.01283273	         30.36418592	         -2.48592043	         -3.97784023	         -8.02877955	          3.26111717	          0.26066130	        -14.69864191	          0.99594951	          3.72977438	         -8.59713949	          8.29240748	         27.00000679	        -10.61158859	         -2.19161577	         -1.29806507	          0.13854528	          0.15513948	          0.01000000	          0.02355154	          0.11665298	          0.05777421	          0.11563286	          0.06526505	          0.02136498	          0.01000000	          0.00999999	          0.01000000	          0.00999999	          0.39946478	          0.11648803	          0.00999999	          0.00999999	          0.03965832	          0.01361787	          0.01387609	          0.15053247	          0.01654830	          0.21642662	          0.01000001	          0.00999999	          0.11992890	          0.27791759	          0.02180470	
          0.01096905	         -3.67038997	          0.44284198	          7.95601016	          0.01553773	          0.84964091	         -0.01271797	         30.03380591	         -2.24304816	         -3.65560049	         -9.10544914	          2.92532701	          0.26024143	        -15.09481011	          0.98571255	          3.37947143	         -9.73733164	          7.37029421	         28.64566921	        -10.50931295	         -1.80485022	         -1.52608013	          0.11713162	          0.13116096	          0.01000000	          0.01991139	          0.13461961	          0.04884457	          0.09776061	          0.11946097	          0.01806278	          0.01000020	          0.01000001	          0.01601943	          0.01399056	          0.40896808	          0.14957650	          0.00999999	          0.01000000	          0.03352869	          0.02179728	          0.01414791	          0.12726602	          0.01399058	          0.23652224	          0.01000016	          0.01000002	          0.10139256	          0.25895149	          0.01843454	
          0.02193810	         -3.67455274	          0.50262693	          7.91377916	          0.03131885	          0.84836362	         -0.01256357	         29.60255964	         -2.07369066	         -3.19733163	        -10.24696301	          2.60588159	          0.24820122	        -15.37098909	          0.96952019	          3.00260645	        -11.12824377	          6.35288062	         30.24143071	        -10.38675716	         -1.39392370	         -1.74956466	          0.13200386	          0.11282172	          0.00999999	          0.08347946	          0.12871311	          0.05355136	          0.10767441	          0.13141277	          0.01527098	          0.00999999	          0.00999999	          0.01354345	          0.01182816	          0.46697590	          0.16576465	          0.00999999	          0.00999999	          0.02834646	          0.02094119	          0.01196123	          0.10759566	          0.01182819	          0.19996513	          0.01000001	          0.00999999	          0.08572122	          0.23849733	          0.01558528	
          0.03290715	         -3.67294862	          0.57002980	          7.82464637	          0.04714738	          0.84737972	         -0.01230204	         29.14762690	         -1.92411635	         -2.80460643	        -11.32660134	          2.17886398	          0.23532308	        -15.44364222	          0.97071241	          2.60093390	        -12.88251050	          5.20589041	         31.74607290	        -10.26617355	         -0.99427795	         -1.96356827	          0.14579097	          0.09538388	          0.00999999	          0.13294909	          0.14280234	          0.04795350	          0.09103215	          0.14610544	          0.01291068	          0.01000000	          0.00999999	          0.01145016	          0.00999999	          0.49962885	          0.18888904	          0.00999999	          0.00999999	          0.02396520	          0.01770451	          0.01011262	          0.09096557	          0.01000001	          0.16905831	          0.01000002	          0.00999999	          0.07247206	          0.20547170	          0.01317640	
          0.04387620	         -3.66626721	          0.64141445	          7.69378922	          0.06284924	          0.84682443	         -0.01193636	         28.76468933	         -1.77901926	         -2.48257457	        -12.53758229	          1.85914343	          0.21822994	        -15.24019956	          0.98539056	          2.17570176	        -15.09917760	          3.93800368	         33.02981791	        -10.16320494	         -0.60229427	         -2.16589390	          0.15329844	          0.08064125	          0.00999999	          0.17198699	          0.16075927	          0.04626539	          0.07696213	          0.16328118	          0.01091520	          0.01000000	          0.02826331	          0.01000000	          0.00999999	          0.51441805	          0.22196683	          0.00999999	          0.00999999	          0.02026112	          0.03441884	          0.01063630	          0.07690584	          0.00999999	          0.14292849	          0.01000001	          0.00999999	          0.06127071	          0.17371378	          0.01113984	
